<?xml version="1.0" encoding="UTF-8"?>
<svg width="48px" height="48px" viewBox="0 0 48 48" version="1.1" xmlns="http://www.w3.org/2000/svg" xmlns:xlink="http://www.w3.org/1999/xlink">
    <!-- Generator: Sketch 50.2 (55047) - http://www.bohemiancoding.com/sketch -->
    <title>icon-chat</title>
    <desc>Created with Sketch.</desc>
    <defs></defs>
    <g id="Page-1" stroke="none" stroke-width="1" fill="none" fill-rule="evenodd">
        <g id="micasa-ja-www-homedetail-r01-e02-s1" transform="translate(-22.000000, -815.000000)" fill-rule="nonzero">
            <g id="ChatBox" transform="translate(-2.000000, 792.000000)">
                <g id="icon-chat" transform="translate(24.000000, 23.000000)">
                    <path d="M18.0865455,47.4545455 C17.8530909,47.4545455 17.6189091,47.3978182 17.4050909,47.2843636 C16.9170909,47.0261818 16.6174545,46.5127273 16.632,45.9621818 L16.7738182,40.5461818 L13.1265455,40.5461818 C10.3469091,40.5461818 8.36218182,38.2552727 8.36218182,35.44 L8.36218182,16.4312727 C8.36218182,13.6872727 10.3469091,11.4545455 13.1265455,11.4545455 L42.3170909,11.4545455 C45.0967273,11.4545455 47.6356364,13.6865455 47.6356364,16.4312727 L47.6356364,35.4392727 C47.6356364,38.2545455 45.0974545,40.5454545 42.3170909,40.5454545 L28.1905455,40.5454545 L18.9338182,47.1818182 C18.6821818,47.3629091 18.3847273,47.4545455 18.0865455,47.4545455 Z M13.128,14.3636364 C11.9323636,14.3636364 11.2727273,15.272 11.2727273,16.4312727 L11.2727273,35.4392727 C11.2727273,36.6312727 11.9723636,37.6363636 13.128,37.6363636 L18.2683636,37.6363636 C18.6610909,37.6363636 19.0370909,37.7941818 19.3105455,38.0756364 C19.5847273,38.3570909 19.7330909,38.7374545 19.7221818,39.1294545 L19.6174545,43.1127273 L26.8749091,37.9098182 C27.1221818,37.7323636 27.4181818,37.6370909 27.7221818,37.6370909 L42.3170909,37.6370909 C43.4727273,37.6370909 44.7265455,36.6312727 44.7265455,35.44 L44.7265455,16.4312727 C44.7265455,15.272 43.5127273,14.3636364 42.3170909,14.3636364 L13.128,14.3636364 Z" id="Shape" fill="#666666"></path>
                    <path d="M2.67636364,28.4734545 C2.33309091,28.4734545 2.128,28.3527273 1.85090909,28.1069091 C0.786909091,27.1650909 0.363636364,25.928 0.363636364,24.5301818 L0.363636364,5.52218182 C0.363636364,2.77818182 2.34836364,0.545454545 5.128,0.545454545 L34.3185455,0.545454545 C37.0981818,0.545454545 39.6370909,2.77745455 39.6370909,5.52218182 L39.6370909,6.36363636 C39.6370909,7.16654545 38.9854545,7.81818182 38.1825455,7.81818182 C37.3796364,7.81818182 36.728,7.16654545 36.728,6.36363636 L36.728,5.52218182 C36.728,4.36290909 35.5141818,3.45454545 34.3185455,3.45454545 L5.128,3.45454545 C3.93236364,3.45454545 3.27272727,4.36290909 3.27272727,5.52218182 L3.27272727,24.5301818 C3.27272727,25.0872727 3.34545455,25.5447273 3.77963636,25.9294545 C4.38109091,26.4618182 4.368,27.3825455 3.83490909,27.9832727 C3.54690909,28.3069091 3.07781818,28.4734545 2.67636364,28.4734545 Z" id="Shape" fill="#666666"></path>
                    <g id="Group" transform="translate(16.000000, 18.909091)" fill="#000000">
                        <path d="M6.632,2 L0.813818182,2 C0.411636364,2 0.0865454545,1.67490909 0.0865454545,1.27272727 C0.0865454545,0.870545455 0.411636364,0.545454545 0.813818182,0.545454545 L6.632,0.545454545 C7.03418182,0.545454545 7.35927273,0.870545455 7.35927273,1.27272727 C7.35927273,1.67490909 7.03418182,2 6.632,2 Z" id="Shape"></path>
                        <path d="M16.8138182,2 L9.54109091,2 C9.13890909,2 8.81381818,1.67490909 8.81381818,1.27272727 C8.81381818,0.870545455 9.13890909,0.545454545 9.54109091,0.545454545 L16.8138182,0.545454545 C17.216,0.545454545 17.5410909,0.870545455 17.5410909,1.27272727 C17.5410909,1.67490909 17.216,2 16.8138182,2 Z" id="Shape"></path>
                        <path d="M22.632,2 L19.7229091,2 C19.3207273,2 18.9956364,1.67490909 18.9956364,1.27272727 C18.9956364,0.870545455 19.3207273,0.545454545 19.7229091,0.545454545 L22.632,0.545454545 C23.0341818,0.545454545 23.3592727,0.870545455 23.3592727,1.27272727 C23.3592727,1.67490909 23.0341818,2 22.632,2 Z" id="Shape"></path>
                    </g>
                    <g id="Group" transform="translate(16.000000, 22.545455)" fill="#000000">
                        <path d="M3.72290909,2 L0.813818182,2 C0.411636364,2 0.0865454545,1.67418182 0.0865454545,1.27272727 C0.0865454545,0.871272727 0.411636364,0.545454545 0.813818182,0.545454545 L3.72290909,0.545454545 C4.12509091,0.545454545 4.45018182,0.870545455 4.45018182,1.27272727 C4.45018182,1.67490909 4.12509091,2 3.72290909,2 Z" id="Shape"></path>
                        <path d="M12.4501818,2 L6.632,2 C6.22981818,2 5.90472727,1.67418182 5.90472727,1.27272727 C5.90472727,0.871272727 6.22981818,0.545454545 6.632,0.545454545 L12.4501818,0.545454545 C12.8523636,0.545454545 13.1774545,0.870545455 13.1774545,1.27272727 C13.1774545,1.67490909 12.8523636,2 12.4501818,2 Z" id="Shape"></path>
                        <path d="M22.632,2 L15.3592727,2 C14.9570909,2 14.632,1.67418182 14.632,1.27272727 C14.632,0.871272727 14.9570909,0.545454545 15.3592727,0.545454545 L22.632,0.545454545 C23.0341818,0.545454545 23.3592727,0.870545455 23.3592727,1.27272727 C23.3592727,1.67490909 23.0341818,2 22.632,2 Z" id="Shape"></path>
                    </g>
                    <g id="Group" transform="translate(16.000000, 26.909091)" fill="#000000">
                        <path d="M8.08654545,2 L0.813818182,2 C0.411636364,2 0.0865454545,1.67490909 0.0865454545,1.27272727 C0.0865454545,0.870545455 0.411636364,0.545454545 0.813818182,0.545454545 L8.08654545,0.545454545 C8.48872727,0.545454545 8.81381818,0.870545455 8.81381818,1.27272727 C8.81381818,1.67490909 8.48872727,2 8.08654545,2 Z" id="Shape"></path>
                        <path d="M18.2683636,2 L10.9956364,2 C10.5934545,2 10.2683636,1.67490909 10.2683636,1.27272727 C10.2683636,0.870545455 10.5934545,0.545454545 10.9956364,0.545454545 L18.2683636,0.545454545 C18.6705455,0.545454545 18.9956364,0.870545455 18.9956364,1.27272727 C18.9956364,1.67490909 18.6705455,2 18.2683636,2 Z" id="Shape"></path>
                        <path d="M22.632,2 L21.1774545,2 C20.7752727,2 20.4501818,1.67490909 20.4501818,1.27272727 C20.4501818,0.870545455 20.7752727,0.545454545 21.1774545,0.545454545 L22.632,0.545454545 C23.0341818,0.545454545 23.3592727,0.870545455 23.3592727,1.27272727 C23.3592727,1.67490909 23.0341818,2 22.632,2 Z" id="Shape"></path>
                    </g>
                    <g id="Group" transform="translate(16.000000, 30.545455)" fill="#000000">
                        <path d="M3.72290909,2 L0.813818182,2 C0.411636364,2 0.0865454545,1.67490909 0.0865454545,1.27272727 C0.0865454545,0.870545455 0.411636364,0.545454545 0.813818182,0.545454545 L3.72290909,0.545454545 C4.12509091,0.545454545 4.45018182,0.870545455 4.45018182,1.27272727 C4.45018182,1.67490909 4.12509091,2 3.72290909,2 Z" id="Shape"></path>
                        <path d="M11.7229091,2 L6.632,2 C6.22981818,2 5.90472727,1.67490909 5.90472727,1.27272727 C5.90472727,0.870545455 6.22981818,0.545454545 6.632,0.545454545 L11.7229091,0.545454545 C12.1250909,0.545454545 12.4501818,0.870545455 12.4501818,1.27272727 C12.4501818,1.67490909 12.1250909,2 11.7229091,2 Z" id="Shape"></path>
                    </g>
                </g>
            </g>
        </g>
    </g>
</svg>