<svg width="124" height="34" viewBox="0 0 124 34" fill="none" xmlns="http://www.w3.org/2000/svg">
<path d="M28.064 26.08H25.376V16.576C25.376 15.0613 25.28 13.952 25.088 13.248C24.9173 12.544 24.5227 11.9573 23.904 11.488C23.3067 10.9973 22.5067 10.752 21.504 10.752C20.5227 10.752 19.5947 11.072 18.72 11.712C17.8453 12.352 17.2373 13.2267 16.896 14.336C16.5547 15.424 16.384 17.0453 16.384 19.2V26.08H13.792V17.152C13.792 15.4027 13.696 14.144 13.504 13.376C13.3333 12.608 12.9387 11.9787 12.32 11.488C11.7013 10.9973 10.9227 10.752 9.984 10.752C9.04533 10.752 8.14933 11.0507 7.296 11.648C6.464 12.224 5.84533 12.992 5.44 13.952C5.03467 14.8907 4.832 16.4587 4.832 18.656V26.08H2.208V8.64H4.832V11.104C6.32533 9.16267 8.192 8.192 10.432 8.192C11.648 8.192 12.7467 8.52267 13.728 9.184C14.7307 9.824 15.4453 10.7413 15.872 11.936C16.5973 10.72 17.504 9.792 18.592 9.152C19.68 8.512 20.832 8.192 22.048 8.192C23.712 8.192 25.1307 8.77867 26.304 9.952C27.4773 11.1253 28.064 13.3333 28.064 16.576V26.08ZM33.2313 2.08C33.8073 2.08 34.2873 2.28267 34.6713 2.688C35.0766 3.072 35.2793 3.552 35.2793 4.128C35.2793 4.68267 35.0766 5.16267 34.6713 5.568C34.2873 5.952 33.8073 6.144 33.2313 6.144C32.6766 6.144 32.1966 5.94133 31.7913 5.536C31.4073 5.13067 31.2153 4.66133 31.2153 4.128C31.2153 3.57333 31.4073 3.09333 31.7913 2.688C32.1966 2.28267 32.6766 2.08 33.2313 2.08ZM34.5753 26.08H31.9193V8.64H34.5753V26.08ZM55.7015 22.528C54.7842 23.872 53.5788 24.896 52.0855 25.6C50.6135 26.304 49.0135 26.656 47.2855 26.656C44.5975 26.656 42.3468 25.7707 40.5335 24C38.7415 22.2293 37.8455 20.064 37.8455 17.504C37.8455 14.944 38.7522 12.7573 40.5655 10.944C42.3788 9.10933 44.7255 8.192 47.6055 8.192C49.3122 8.192 50.8802 8.56533 52.3095 9.312C53.7602 10.0587 54.8908 11.104 55.7015 12.448L53.6215 13.76C52.0642 11.7333 50.0268 10.72 47.5095 10.72C45.5255 10.72 43.8615 11.36 42.5175 12.64C41.1735 13.8987 40.5015 15.4667 40.5015 17.344C40.5015 19.2213 41.1628 20.832 42.4855 22.176C43.8082 23.52 45.4828 24.192 47.5095 24.192C49.9415 24.192 51.9895 23.168 53.6535 21.12L55.7015 22.528ZM76.7403 26.08H74.1483V23.52C72.2496 25.6107 70.0629 26.656 67.5883 26.656C65.1136 26.656 62.9909 25.7493 61.2203 23.936C59.4709 22.1013 58.5963 19.9253 58.5963 17.408C58.5963 14.8693 59.4816 12.704 61.2523 10.912C63.0229 9.09867 65.1776 8.192 67.7163 8.192C70.2763 8.192 72.4203 9.22667 74.1483 11.296V8.64H76.7403V26.08ZM67.7803 24.192C69.5509 24.192 71.0763 23.552 72.3563 22.272C73.6363 20.992 74.2763 19.4027 74.2763 17.504C74.2763 15.584 73.6469 13.984 72.3883 12.704C71.1296 11.4027 69.5829 10.752 67.7483 10.752C65.9349 10.752 64.3989 11.424 63.1403 12.768C61.8816 14.0907 61.2523 15.6587 61.2523 17.472C61.2523 19.2853 61.8923 20.864 63.1723 22.208C64.4523 23.5307 65.9883 24.192 67.7803 24.192ZM90.296 10.688L88.6 12.448C87.3413 11.2747 86.1893 10.688 85.144 10.688C84.4827 10.688 83.928 10.9013 83.48 11.328C83.032 11.7333 82.808 12.2453 82.808 12.864C82.808 13.4613 83.0533 13.9947 83.544 14.464C84.056 14.912 84.952 15.4773 86.232 16.16C87.512 16.8213 88.4933 17.5573 89.176 18.368C89.88 19.1787 90.232 20.1707 90.232 21.344C90.232 22.8373 89.7093 24.096 88.664 25.12C87.64 26.144 86.3707 26.656 84.856 26.656C82.744 26.656 80.984 25.76 79.576 23.968L81.24 22.112C82.392 23.456 83.5653 24.128 84.76 24.128C85.5707 24.128 86.264 23.8613 86.84 23.328C87.416 22.7947 87.704 22.176 87.704 21.472C87.704 20.7467 87.4373 20.1493 86.904 19.68C86.392 19.1893 85.496 18.624 84.216 17.984C82.9573 17.344 81.9973 16.64 81.336 15.872C80.696 15.0827 80.376 14.0587 80.376 12.8C80.376 11.52 80.8347 10.432 81.752 9.536C82.6907 8.64 83.9173 8.192 85.432 8.192C86.968 8.192 88.5893 9.024 90.296 10.688ZM110.99 26.08H108.398V23.52C106.5 25.6107 104.313 26.656 101.838 26.656C99.3636 26.656 97.2409 25.7493 95.4703 23.936C93.7209 22.1013 92.8463 19.9253 92.8463 17.408C92.8463 14.8693 93.7316 12.704 95.5023 10.912C97.2729 9.09867 99.4276 8.192 101.966 8.192C104.526 8.192 106.67 9.22667 108.398 11.296V8.64H110.99V26.08ZM102.03 24.192C103.801 24.192 105.326 23.552 106.606 22.272C107.886 20.992 108.526 19.4027 108.526 17.504C108.526 15.584 107.897 13.984 106.638 12.704C105.38 11.4027 103.833 10.752 101.998 10.752C100.185 10.752 98.6489 11.424 97.3903 12.768C96.1316 14.0907 95.5023 15.6587 95.5023 17.472C95.5023 19.2853 96.1423 20.864 97.4223 22.208C98.7023 23.5307 100.238 24.192 102.03 24.192Z" fill="#4FB7A6"/>
</svg>